<?xml version="1.0" standalone="no"?><!DOCTYPE svg PUBLIC "-//W3C//DTD SVG 1.1//EN" "http://www.w3.org/Graphics/SVG/1.1/DTD/svg11.dtd"><svg t="1723002037570" class="icon" viewBox="0 0 1024 1024" version="1.1" xmlns="http://www.w3.org/2000/svg" p-id="11509" xmlns:xlink="http://www.w3.org/1999/xlink" width="200" height="200"><path d="M563.4048 549.9904m-405.7088 0a405.7088 405.7088 0 1 0 811.4176 0 405.7088 405.7088 0 1 0-811.4176 0Z" fill="#FFF3AE" p-id="11510"></path><path d="M493.3632 931.2256a431.3088 431.3088 0 1 1 431.3088-431.3088 431.8208 431.8208 0 0 1-431.3088 431.3088z m0-811.4176a380.1088 380.1088 0 1 0 380.1088 380.1088A380.5184 380.5184 0 0 0 493.3632 119.808z" fill="#333333" p-id="11511"></path><path d="M579.3792 498.3808H409.1904a20.48 20.48 0 0 1-20.48-20.48V416.9216a20.48 20.48 0 0 1 20.48-20.48h170.1888a20.48 20.48 0 0 1 20.48 20.48v60.9792a20.48 20.48 0 0 1-20.48 20.48z m-149.7088-40.96h129.2288v-20.0192H429.6704zM604.16 636.1088a20.48 20.48 0 0 1-20.48-20.48v-58.0096H405.4016v58.0096a20.48 20.48 0 1 1-40.96 0v-78.4896a20.48 20.48 0 0 1 20.48-20.48H604.16a20.48 20.48 0 0 1 20.48 20.48v78.4896a20.48 20.48 0 0 1-20.48 20.48z" fill="#333333" p-id="11512"></path><path d="M338.944 694.7328a20.48 20.48 0 0 1-1.3824-40.96c87.552-5.9392 118.528-29.5424 129.1776-43.0592a32.4608 32.4608 0 0 0 8.0896-19.9168 20.48 20.48 0 1 1 40.3968-6.7584c0.4096 2.6112 3.7376 26.624-16.3328 52.0704-26.4192 33.4848-79.7696 53.1456-158.72 58.5216z" fill="#333333" p-id="11513"></path><path d="M638.4128 694.1696a20.48 20.48 0 0 1-7.1168-1.28L516.3008 650.24a20.48 20.48 0 1 1 14.336-38.3488l114.944 42.8032a20.48 20.48 0 0 1-7.168 39.68zM663.8592 336.384h-41.2672l12.9024-21.0432a20.48 20.48 0 0 0-34.9184-21.4016l-25.2416 40.96a13.9264 13.9264 0 0 0-0.5632 1.28h-58.88v-42.3936a20.48 20.48 0 0 0-40.96 0v42.5984h-49.6128l-28.7744-40.5504a20.48 20.48 0 0 0-33.4336 23.6544l12.0832 17.0496H333.312a20.48 20.48 0 0 0-20.48 20.48v60.672a20.48 20.48 0 0 0 40.96 0V377.344h289.5872V419.84a20.48 20.48 0 1 0 40.96 0V356.864a20.48 20.48 0 0 0-20.48-20.48z" fill="#333333" p-id="11514"></path></svg>