<svg width="14" height="12" viewBox="0 0 14 12" fill="none" xmlns="http://www.w3.org/2000/svg">
    <path d="M12.6 1C12.8203 1 13 1.17969 13 1.4V9.8C13 10.0203 12.8203 10.2 12.6 10.2H1.4C1.17969 10.2 1 10.0203 1 9.8V2.8C1 2.57969 1.17969 2.4 1.4 2.4H7.41406L7.70625 2.10781L8.81406 1H12.6ZM12.6 0H8.69063C8.50469 0 8.32656 0.0734374 8.19531 0.204687L7 1.4H1.4C0.626563 1.4 0 2.02656 0 2.8V9.8C0 10.5734 0.626563 11.2 1.4 11.2H12.6C13.3734 11.2 14 10.5734 14 9.8V1.4C14 0.626562 13.3734 0 12.6 0Z"
          fill="white" fill-opacity="0.65"/>
    <path d="M11 9.18359H3C2.72344 9.18359 2.5 8.96016 2.5 8.68359C2.5 8.40703 2.72344 8.18359 3 8.18359H11C11.2766 8.18359 11.5 8.40703 11.5 8.68359C11.5 8.96016 11.2766 9.18359 11 9.18359Z"
          fill="white" fill-opacity="0.65"/>
</svg>
